<?xml version="1.0" standalone="no"?><!DOCTYPE svg PUBLIC "-//W3C//DTD SVG 1.1//EN" "http://www.w3.org/Graphics/SVG/1.1/DTD/svg11.dtd"><svg t="1661566057630" class="icon" viewBox="0 0 1024 1024" version="1.1" xmlns="http://www.w3.org/2000/svg" p-id="7758" xmlns:xlink="http://www.w3.org/1999/xlink" width="200" height="200"><path d="M705.908 127.367l-63.801 0c-0.659-70.557-58.05-127.367-128.752-127.367-70.709 0-128.093 56.81-128.752 127.367l-62.335 0c-177.974 0-256.471 98.424-256.471 254.642l0 511.707c0 71.311 57.807 129.118 129.112 129.118l637.343 0c71.298 0 129.105-57.807 129.105-129.118l0-509.726C961.357 205.984 883.882 127.367 705.908 127.367zM322.268 191.805l125.537-0.16 0-63.772c0-0.154 0.01-0.306 0.012-0.459 0.607-0.017 1.21-0.046 1.821-0.046l-1.819 0c0.273-35.533 29.155-64.26 64.759-64.26 35.767 0 64.772 28.999 64.772 64.766l0 63.772 128.559 0.16c105.677 0 165.101 44.157 183.784 128.205l-752.298 0C156.396 233.792 217.611 191.805 322.268 191.805zM896.798 903.405c0 35.672-28.894 56.537-64.546 56.537l-637.343 0c-35.652 0-64.553-20.865-64.553-56.537l0-6.792 158.665 0c17.795 0 32.225-14.411 32.225-32.206 0-17.821-14.431-32.232-32.225-32.232l-158.665 0 0-64.395 158.665 0c17.795 0 32.225-14.443 32.225-32.238 0-17.788-14.431-32.206-32.225-32.206l-158.665 0 0-63.474 158.665 0c17.795 0 32.225-14.385 32.225-32.18 0-17.846-14.431-32.264-32.225-32.264l-158.665 0 0-63.416 158.665 0c17.795 0 32.225-14.443 32.225-32.232 0-17.763-14.431-32.206-32.225-32.206l-158.665 0 0-1.007c0-25.17 0-46.943 0-57.588l766.442 0C896.798 399.612 896.798 903.405 896.798 903.405z" p-id="7759"></path></svg>