<?xml version="1.0" standalone="no"?><!DOCTYPE svg PUBLIC "-//W3C//DTD SVG 1.1//EN" "http://www.w3.org/Graphics/SVG/1.1/DTD/svg11.dtd"><svg t="1661566876704" class="icon" viewBox="0 0 1024 1024" version="1.1" xmlns="http://www.w3.org/2000/svg" p-id="32454" xmlns:xlink="http://www.w3.org/1999/xlink" width="200" height="200"><path d="M925.198222 118.670222c-96.896 8.021333-220.529778-30.008889-399.402666 68.565334-102.314667 56.348444-139.150222 153.472-148.892445 242.673777a155.648 155.648 0 0 0-58.496-57.784889h-0.014222c-101.376-57.713778-171.420444-35.456-226.346667-40.149333-11.889778-1.024-21.219556 178.161778 37.731556 250.922667 46.606222 57.571556 127.075556 86.343111 217.116444 65.436444-43.335111 73.685333-77.852444 148.949333-103.381333 231.850667-3.256889 10.624 2.531556 21.930667 12.771555 25.102222a19.114667 19.114667 0 0 0 24.007112-12.814222 1042.645333 1042.645333 0 0 1 118.812444-256.995556c177.137778 68.935111 342.300444 31.075556 440.746667-67.683555 6.584889-6.599111 12.856889-13.482667 18.787555-20.565334 104.035556-124.302222 87.523556-430.236444 66.56-428.558222zM333.141333 602.481778l-99.072-99.868445a19.128889 19.128889 0 0 1 0-26.936889 18.801778 18.801778 0 0 1 26.737778 0h0.014222l99.072 99.84c7.409778 7.011556 2.375111 25.585778 0.625778 26.908445-3.712 2.773333-16.725333 10.851556-27.377778 0.056889z m329.258667-262.826667c-96.042667 74.652444-173.070222 157.340444-238.023111 258.602667-0.682667-2.545778-7.864889-22.371556-10.197333-54.314667 63.36-91.420444 135.125333-165.674667 223.957333-234.723555 8.746667-6.812444 21.262222-5.262222 27.761778 3.271111 6.528 8.533333 4.920889 20.622222-3.498667 27.164444z" p-id="32455"></path></svg>