<?xml version="1.0" standalone="no"?><!DOCTYPE svg PUBLIC "-//W3C//DTD SVG 1.1//EN" "http://www.w3.org/Graphics/SVG/1.1/DTD/svg11.dtd"><svg t="1661566808118" class="icon" viewBox="0 0 1024 1024" version="1.1" xmlns="http://www.w3.org/2000/svg" p-id="26929" xmlns:xlink="http://www.w3.org/1999/xlink" width="200" height="200"><path d="M921.6 140.8 512 140.8C512 140.8 512 134.4 512 128l0 0c0-51.2-44.8-96-96-96L320 32C262.4 32 217.6 76.8 217.6 128l0 0c0 6.4 0 6.4 0 12.8L102.4 140.8C44.8 140.8 0 192 0 243.2l0 595.2c0 57.6 44.8 102.4 102.4 102.4l819.2 0c57.6 0 102.4-44.8 102.4-102.4L1024 243.2C1024 192 979.2 140.8 921.6 140.8zM512 768c-121.6 0-224-102.4-224-224C288 422.4 390.4 320 512 320s224 102.4 224 224C736 665.6 633.6 768 512 768zM857.6 396.8c-32 0-57.6-25.6-57.6-57.6s25.6-57.6 57.6-57.6c32 0 57.6 25.6 57.6 57.6S889.6 396.8 857.6 396.8z" p-id="26930"></path></svg>