<?xml version="1.0" standalone="no"?><!DOCTYPE svg PUBLIC "-//W3C//DTD SVG 1.1//EN" "http://www.w3.org/Graphics/SVG/1.1/DTD/svg11.dtd"><svg t="1661566910798" class="icon" viewBox="0 0 1097 1024" version="1.1" xmlns="http://www.w3.org/2000/svg" p-id="33490" xmlns:xlink="http://www.w3.org/1999/xlink" width="214.2578125" height="200"><path d="M991.91127 281.634349l-55.208975 0 0-165.602214c0-33.496678-23.244421-60.742847-51.81112-60.742847l-671.794661 0c-28.572877 0-51.818842 27.246168-51.818842 60.742847l0 165.602214-55.208666 0 0-165.602214c0-63.933742 48.017568-115.951822 107.027509-115.951822l671.794661 0c59.003762 0 107.020095 52.01808 107.020095 115.951822l0 165.602214z" p-id="33491"></path><path d="M983.362574 1023.993132l-85.941035 0c-62.605489 0-113.550156-52.964774-113.550156-118.050698l0-1.043759-470.823859 0 0 1.043759c0 65.085924-50.944667 118.050698-113.556334 118.050698l-85.941189 0C50.937099 1023.993132 0 971.028358 0 905.942434l0-533.858714c0-65.092102 50.937099-118.05077 113.550001-118.05077l85.941189 0c62.611667 0 113.556334 52.958668 113.556334 118.05077l0 214.821697 470.130388-0.501956 0.693471-214.404687c0-65.007155 50.938489-117.965824 113.556334-117.965824l85.934857 0c62.617845 0 113.556334 52.958668 113.556334 118.056948l0 533.852536c0 65.085924-50.938489 118.050698-113.556334 118.050698l0 0zM257.837004 849.689391l581.237177 0 0 56.253044c0 34.64886 26.178933 62.840405 58.347358 62.840405l85.941035 0c32.168426 0 58.347358-28.191544 58.347358-62.840405l0-533.858714c0-34.655038-26.178933-62.841795-58.347358-62.841795l-85.934857 0c-32.174603 0-58.353536 28.186757-58.353536 62.841795l-0.874176 269.468482-580.363001 0.616247 0-270.084729c0-34.655038-26.177388-62.841795-58.345814-62.841795l-85.941189 0c-32.169816 0-58.346895 28.186757-58.346895 62.841795l0 533.858714c0 34.64886 26.177079 62.840405 58.346895 62.840405l85.941189 0c32.168426 0 58.345814-28.191544 58.345814-62.840405l0-56.253044z" p-id="33492"></path></svg>