<?xml version="1.0" standalone="no"?><!DOCTYPE svg PUBLIC "-//W3C//DTD SVG 1.1//EN" "http://www.w3.org/Graphics/SVG/1.1/DTD/svg11.dtd"><svg t="1661566815854" class="icon" viewBox="0 0 1024 1024" version="1.1" xmlns="http://www.w3.org/2000/svg" p-id="27959" xmlns:xlink="http://www.w3.org/1999/xlink" width="200" height="200"><path d="M942.850048 904.192c-13.006848 0-23.552-10.545152-23.552-23.552 0-60.10368-27.27424-115.715072-74.826752-152.573952-10.28096-7.968768-12.155904-22.762496-4.187136-33.04448 7.969792-10.279936 22.762496-12.152832 33.04448-4.186112 28.315648 21.948416 51.744768 50.43712 67.755008 82.387968 16.800768 33.526784 25.319424 69.666816 25.319424 107.415552C966.402048 893.646848 955.856896 904.192 942.850048 904.192z" p-id="27960"></path><path d="M726.53312 386.048c-83.149824 0-150.797312 67.67616-150.797312 150.859776 0 28.18048 7.82336 55.672832 22.622208 79.50848 6.862848 11.049984 21.382144 14.44352 32.433152 7.584768 11.049984-6.861824 14.445568-21.382144 7.584768-32.433152-10.164224-16.367616-15.536128-35.268608-15.536128-54.660096 0-57.21088 46.516224-103.755776 103.693312-103.755776s103.693312 46.544896 103.693312 103.755776-46.516224 103.755776-103.693312 103.755776c-64.072704 0-124.310528 24.963072-169.617408 70.291456C511.612928 756.28032 486.664192 816.541696 486.664192 880.64c0 13.006848 10.545152 23.552 23.552 23.552s23.552-10.545152 23.552-23.552c0-106.349568 86.473728-192.872448 192.764928-192.872448 83.149824 0 150.797312-67.67616 150.797312-150.859776S809.682944 386.048 726.53312 386.048z" p-id="27961"></path><path d="M346.068992 836.608 231.425024 836.608c-98.81088 0-179.2-80.38912-179.2-179.2L52.225024 414.271488c0-14.094336 11.390976-25.536512 25.485312-25.6l368.644096-1.656832c0.038912 0 0.078848 0 0.116736 0 14.08512 0 25.534464 11.384832 25.597952 25.485312 0.063488 14.138368-11.346944 25.6512-25.485312 25.714688l-343.158784 1.542144L103.425024 657.408c0 70.5792 57.4208 128 128 128l114.643968 0c14.139392 0 25.6 11.461632 25.6 25.6S360.208384 836.608 346.068992 836.608z" p-id="27962"></path><path d="M931.841024 314.368l-854.016 0c-14.139392 0-25.6-11.460608-25.6-25.6 0-98.81088 80.38912-179.2 179.2-179.2l546.816 0c98.81088 0 179.2 80.38912 179.2 179.2C957.441024 302.907392 945.980416 314.368 931.841024 314.368zM105.997312 263.168l797.672448 0c-11.89376-58.351616-63.614976-102.4-125.427712-102.4l-546.816 0C169.612288 160.768 117.891072 204.816384 105.997312 263.168z" p-id="27963"></path><path d="M385.025024 693.248l-204.8 0c-14.138368 0-25.6-11.461632-25.6-25.6s11.461632-25.6 25.6-25.6l204.8 0c14.138368 0 25.6 11.461632 25.6 25.6S399.163392 693.248 385.025024 693.248z" p-id="27964"></path></svg>