<?xml version="1.0" standalone="no"?><!DOCTYPE svg PUBLIC "-//W3C//DTD SVG 1.1//EN" "http://www.w3.org/Graphics/SVG/1.1/DTD/svg11.dtd"><svg t="1662200382394" class="icon" viewBox="0 0 1024 1024" version="1.1" xmlns="http://www.w3.org/2000/svg" p-id="6877" xmlns:xlink="http://www.w3.org/1999/xlink" width="200" height="200"><path d="M512 998.4C244.053333 998.4 25.6 779.946667 25.6 512c0-129.706667 51.2-252.586667 141.653333-344.746667 46.08-46.08 98.986667-80.213333 157.013334-105.813333 17.066667-6.826667 37.546667 1.706667 44.373333 18.773333s-1.706667 37.546667-18.773333 44.373334c-51.2 20.48-97.28 51.2-134.826667 90.453333C136.533333 295.253333 93.866667 401.066667 93.866667 512c0 230.4 187.733333 418.133333 418.133333 418.133333 110.933333 0 216.746667-42.666667 295.253333-122.88 39.253333-39.253333 69.973333-85.333333 90.453334-134.826666 6.826667-17.066667 27.306667-25.6 44.373333-18.773334 17.066667 6.826667 25.6 27.306667 18.773333 44.373334-23.893333 59.733333-59.733333 112.64-105.813333 157.013333-90.453333 92.16-213.333333 143.36-343.04 143.36z" fill="#333333" p-id="6878"></path><path d="M512 34.133333c-13.653333 0-25.6 11.946667-25.6 25.6V512c0 13.653333 11.946667 25.6 25.6 25.6h452.266667c13.653333 0 25.6-11.946667 25.6-25.6C989.866667 249.173333 774.826667 34.133333 512 34.133333z" fill="#333333" p-id="6879"></path></svg>