<?xml version="1.0" standalone="no"?><!DOCTYPE svg PUBLIC "-//W3C//DTD SVG 1.1//EN" "http://www.w3.org/Graphics/SVG/1.1/DTD/svg11.dtd"><svg t="1661566760807" class="icon" viewBox="0 0 1024 1024" version="1.1" xmlns="http://www.w3.org/2000/svg" p-id="24235" xmlns:xlink="http://www.w3.org/1999/xlink" width="200" height="200"><path d="M404.999667 73.94609C367.515474 29.816972 311.62995 1.703827 249.099501 1.703827c-112.963727 0-204.459235 91.495507-204.459235 204.459235 0 36.121131 9.371048 70.027288 25.727787 99.503494C148.914476 193.554742 266.989684 109.896839 404.999667 73.94609z" p-id="24236"></path><path d="M953.461564 303.962729c16.356739-29.476206 25.727787-63.382363 25.727787-99.503494 0-112.963727-91.495507-204.459235-204.459235-204.459235-62.530449 0-118.415973 28.113145-155.900166 72.242263C756.839933 108.193012 875.085524 191.850915 953.461564 303.962729z" p-id="24237"></path><path d="M513.703827 138.009983C269.034276 138.009983 70.708819 336.335441 70.708819 581.004992s198.325458 442.995008 442.995008 442.995008 442.995008-198.325458 442.995008-442.995008S758.373378 138.009983 513.703827 138.009983zM687.664559 708.110483 518.815308 708.110483l-105.978037 0L412.837271 361.55208 518.815308 361.55208l0 240.921131 168.849251 0L687.664559 708.110483z" p-id="24238"></path></svg>