<?xml version="1.0" standalone="no"?><!DOCTYPE svg PUBLIC "-//W3C//DTD SVG 1.1//EN" "http://www.w3.org/Graphics/SVG/1.1/DTD/svg11.dtd"><svg t="1661566751503" class="icon" viewBox="0 0 1024 1024" version="1.1" xmlns="http://www.w3.org/2000/svg" p-id="23336" xmlns:xlink="http://www.w3.org/1999/xlink" width="200" height="200"><path d="M978.86208 423.606272l-75.542528-207.555584C890.836992 181.76 857.9328 158.72 821.440512 158.72H202.559488c-36.492288 0-69.39648 23.04-81.878016 57.331712L45.13792 423.606272c-14.031872 38.551552-12.2112 80.259072 5.127168 117.440512s48.11776 65.386496 86.669312 79.417344c32.902144 11.97568 69.229568 12.324864 102.293504 0.980992 21.712896-7.4496 41.46688-19.71712 57.72288-35.602432 28.39552 27.906048 66.721792 43.884544 107.537408 43.884544 40.804352 0 79.11936-15.967232 107.511808-43.859968 28.393472 27.891712 66.70848 43.859968 107.511808 43.859968 40.814592 0 79.140864-15.978496 107.537408-43.884544 16.256 15.885312 36.009984 28.152832 57.72288 35.602432 33.06496 11.342848 69.392384 10.993664 102.293504-0.980992 38.550528-14.030848 69.330944-42.235904 86.669312-79.417344s19.15904-78.88896 5.127168-117.440512zM202.534912 117.76h618.930176c14.139392 0 25.6-11.461632 25.6-25.6s-11.460608-25.6-25.6-25.6H202.534912c-14.139392 0-25.6 11.461632-25.6 25.6s11.460608 25.6 25.6 25.6zM768.156672 669.874176c-14.291968-4.903936-28.081152-11.450368-41.008128-19.418112a203.962368 203.962368 0 0 1-29.771776 15.16032c-24.7552 10.159104-50.953216 15.310848-77.86496 15.310848-26.904576 0-53.0944-5.147648-77.843456-15.301632A203.952128 203.952128 0 0 1 512 650.532864a203.952128 203.952128 0 0 1-29.668352 15.092736c-24.749056 10.153984-50.93888 15.301632-77.843456 15.301632-26.911744 0-53.108736-5.151744-77.86496-15.310848a203.962368 203.962368 0 0 1-29.771776-15.16032c-12.926976 7.967744-26.717184 14.5152-41.008128 19.418112-21.337088 7.320576-43.657216 11.032576-66.340864 11.032576-16.516096 0-32.821248-1.96096-48.703488-5.844992V829.44c0 70.5792 57.4208 128 128 128h491.52c70.5792 0 128-57.4208 128-128V673.73056a204.537856 204.537856 0 0 1-53.822464 7.175168c-22.6816 0-45.001728-3.710976-66.33984-11.031552z" p-id="23337"></path></svg>