<?xml version="1.0" standalone="no"?><!DOCTYPE svg PUBLIC "-//W3C//DTD SVG 1.1//EN" "http://www.w3.org/Graphics/SVG/1.1/DTD/svg11.dtd"><svg t="1661566824471" class="icon" viewBox="0 0 1024 1024" version="1.1" xmlns="http://www.w3.org/2000/svg" p-id="28103" xmlns:xlink="http://www.w3.org/1999/xlink" width="200" height="200"><path d="M712.3 795h-20c-6.6 0-12-5.4-12-12V409c0-6.6 5.4-12 12-12h20c6.6 0 12 5.4 12 12v374c0 6.6-5.4 12-12 12z" fill="#F1D67B" p-id="28104"></path><path d="M712.3 397h-7c6.6 0 12 5.4 12 12v374c0 6.6-5.4 12-12 12h7c6.6 0 12-5.4 12-12V409c0-6.6-5.4-12-12-12z" fill="#E2C571" p-id="28105"></path><path d="M406.5 536H195.3c-10.2 0-16.4-13.8-13.9-30.1l52.4-339.8c0.8-5 5.8-8.9 11.2-8.9h111.8c5.4 0 10.4 4 11.2 8.9l52.4 339.8c2.5 16.2-3.7 30.1-13.9 30.1z" fill="#232323" p-id="28106"></path><path d="M420.4 505.9L368 166.1c-0.8-5-5.8-8.9-11.2-8.9h-13c5.4 0 10.4 4 11.2 8.9l52.4 339.8c2.5 16.3-3.7 30.1-13.9 30.1h13c10.2 0 16.4-13.9 13.9-30.1z" fill="#161616" p-id="28107"></path><path d="M807.9 507H596.7c-10.2 0-16.4-12.8-13.9-27.8l52.4-313.8c0.8-4.6 5.8-8.3 11.2-8.3h111.8c5.4 0 10.4 3.7 11.2 8.3l52.4 313.8c2.5 15-3.7 27.8-13.9 27.8z" fill="#232323" p-id="28108"></path><path d="M821.8 479.2l-52.4-313.8c-0.8-4.6-5.8-8.3-11.2-8.3h-13c5.4 0 10.4 3.7 11.2 8.3l52.4 313.8c2.5 15-3.7 27.8-13.9 27.8h13c10.2 0 16.4-12.8 13.9-27.8z" fill="#161616" p-id="28109"></path><path d="M406.5 925H195.3c-10.2 0-19.5-5-20.8-11.3L99.4 538.3c-3.3-16.3 7.9-30.1 25-30.1h353.1c17 0 28.2 13.8 25 30.1l-75.1 375.5C426 920 416.7 925 406.5 925z" fill="#A01F2B" p-id="28110"></path><path d="M477.5 507.8h-21c17 0 28.2 13.8 25 30.1l-75.1 375.5c-1.3 6.3-10.6 11.3-20.8 11.3h21c10.2 0 19.5-5 20.8-11.3l75.1-375.5c3.3-16.4-7.9-30.1-25-30.1z" fill="#8E1725" p-id="28111"></path><path d="M747.6 883H657c-5.7 0-8.3-9.3-5.8-19.7l18.4-78.2c0.9-4 4.3-7 7.5-7h50.4c3.2 0 6.5 3.1 7.5 7l18.4 78.2c2.4 10.4-0.1 19.7-5.8 19.7z" fill="#F1D67B" p-id="28112"></path><path d="M753.4 863.3L735 785c-0.9-4-4.3-7-7.5-7h-7c3.2 0 6.5 3.1 7.5 7l18.4 78.2c2.5 10.4-0.1 19.7-5.8 19.7h7c5.7 0.1 8.2-9.2 5.8-19.6z" fill="#E2C571" p-id="28113"></path></svg>