<?xml version="1.0" standalone="no"?><!DOCTYPE svg PUBLIC "-//W3C//DTD SVG 1.1//EN" "http://www.w3.org/Graphics/SVG/1.1/DTD/svg11.dtd"><svg t="1661566850634" class="icon" viewBox="0 0 1024 1024" version="1.1" xmlns="http://www.w3.org/2000/svg" p-id="29905" xmlns:xlink="http://www.w3.org/1999/xlink" width="200" height="200"><path d="M778.686753 401.122447c-61.384732 0-111.160036 50.039364-111.160036 111.425631 0 61.642651 49.775304 111.417955 111.160036 111.417955 61.386267 0 111.167712-49.775304 111.167712-111.417955 0-61.386267-49.781445-111.425631-111.167712-111.425631M511.743616 668.073259c-61.386267 0-111.167712 49.775304-111.167712 111.160036 0 61.386267 49.781445 111.167866 111.167712 111.167866 61.384732 0 111.160036-49.781599 111.160036-111.167866 0-61.384732-49.775304-111.160036-111.160036-111.160036m-44.366681-155.525181c0 24.502309 19.862837 44.101085 44.366681 44.101085 24.760228 0 44.616924-19.598777 44.616924-44.101085 0-24.245925-19.856696-44.108762-44.616924-44.108762-24.503844 0-44.366681 19.862837-44.366681 44.108762m44.366681-377.596546c-61.386267 0-111.167712 49.523526-111.167712 110.909793 0 61.378591 49.781445 111.160036 111.167712 111.160036 61.384732 0 111.160036-49.781445 111.160036-111.160036 0-61.386267-49.775304-110.909793-111.160036-110.909793M244.798945 401.122447c-61.386267 0-111.16633 50.039364-111.16633 111.425631 0 61.642651 49.780064 111.417955 111.16633 111.417955 61.378591 0 111.160036-49.775304 111.160036-111.417955 0-61.386267-49.781445-111.425631-111.160036-111.425631m554.782321 534.411629l117.606477 0c21.410351 0 38.950381 19.604764 38.950381 44.102467 0 24.503844-17.54003 44.365256-38.950381 44.365256l-389.198297 0c-1.547514 0-3.352948-0.258472-4.900462-0.516341-3.609331 0-7.220198 0.516341-11.087448 0.516341C229.578651 1024.001799 0.546543 794.969427 0.546543 512.548078c0-282.422885 229.032108-511.454993 511.454993-511.454993 282.421349 0 511.453457 229.032108 511.453457 511.454993 0 175.897715-88.725685 330.907058-223.873727 422.985998z" p-id="29906"></path></svg>