<?xml version="1.0" standalone="no"?><!DOCTYPE svg PUBLIC "-//W3C//DTD SVG 1.1//EN" "http://www.w3.org/Graphics/SVG/1.1/DTD/svg11.dtd"><svg t="1661431513655" class="icon" viewBox="0 0 1024 1024" version="1.1" xmlns="http://www.w3.org/2000/svg" p-id="22507" xmlns:xlink="http://www.w3.org/1999/xlink" width="200" height="200"><defs><style type="text/css">@font-face { font-family: feedback-iconfont; src: url("//at.alicdn.com/t/font_1031158_u69w8yhxdu.woff2?t=1630033759944") format("woff2"), url("//at.alicdn.com/t/font_1031158_u69w8yhxdu.woff?t=1630033759944") format("woff"), url("//at.alicdn.com/t/font_1031158_u69w8yhxdu.ttf?t=1630033759944") format("truetype"); }
</style></defs><path d="M512 161.792c47.104 0 93.184 9.216 136.192 27.648 41.472 17.408 78.848 43.008 111.104 74.752 32.256 32.256 57.344 69.632 74.752 111.104 18.432 43.008 27.648 89.088 27.648 136.192s-9.216 93.184-27.648 136.192c-17.408 41.472-43.008 78.848-74.752 111.104-32.256 32.256-69.632 57.344-111.104 74.752-43.008 18.432-89.088 27.648-136.192 27.648s-93.184-9.216-136.192-27.648c-41.472-17.408-78.848-43.008-111.104-74.752-32.256-32.256-57.344-69.632-74.752-111.104-18.432-43.008-27.648-89.088-27.648-136.192s9.216-93.184 27.648-136.192c17.408-41.472 43.008-78.848 74.752-111.104C296.96 231.936 334.336 206.848 375.808 189.44c43.008-18.432 89.088-27.648 136.192-27.648m0-79.872c-237.568 0-430.08 192.512-430.08 430.08s192.512 430.08 430.08 430.08 430.08-192.512 430.08-430.08-192.512-430.08-430.08-430.08z" fill="#4A5FE2" p-id="22508"></path><path d="M622.08 376.32h-220.16c-27.648 0-50.176 22.528-50.176 50.176s22.528 50.176 50.176 50.176h220.16c27.648 0 50.176-22.528 50.176-50.176s-22.528-50.176-50.176-50.176z m0 171.008h-220.16c-27.648 0-50.176 22.528-50.176 50.176s22.528 50.176 50.176 50.176h220.16c27.648 0 50.176-22.528 50.176-50.176s-22.528-50.176-50.176-50.176z" fill="#7c44e2" p-id="22509"></path></svg>