<?xml version="1.0" standalone="no"?><!DOCTYPE svg PUBLIC "-//W3C//DTD SVG 1.1//EN" "http://www.w3.org/Graphics/SVG/1.1/DTD/svg11.dtd"><svg t="1661566092765" class="icon" viewBox="0 0 1024 1024" version="1.1" xmlns="http://www.w3.org/2000/svg" p-id="9847" xmlns:xlink="http://www.w3.org/1999/xlink" width="200" height="200"><path d="M954.69056 491.86816l-394.74688 472.22272c-44.22144 46.80192-52.55168 46.80192-96.77824 0L69.2992 491.86304C35.75296 441.25184 5.12 387.3792 5.12 312.58624 5.12 173.16352 109.83936 45.2864 258.56512 45.2864c105.56928 0 188.6976 57.98912 253.43488 126.71488 67.95264-64.75264 147.8656-126.71488 253.44512-126.71488C914.16576 45.2864 1018.88 173.16352 1018.88 312.58624 1018.88 387.38432 994.17088 441.26208 954.69056 491.86816zM892.16 478.72512c49.18784-61.89056 63.36-107.70432 63.36-166.13888 0-108.92288-80.7424-207.8976-190.07488-207.8976-92.38528 0-198.58432 96.08192-253.44512 164.71552-56.34048-71.13216-161.05984-165.4784-253.43488-164.71552-112.31744 0.92672-190.08512 98.97984-190.08512 207.8976 0 58.42944 17.8944 101.08928 63.36 164.28544L512 932.3264 892.16 478.72512z" p-id="9848"></path></svg>