<?xml version="1.0" standalone="no"?><!DOCTYPE svg PUBLIC "-//W3C//DTD SVG 1.1//EN" "http://www.w3.org/Graphics/SVG/1.1/DTD/svg11.dtd"><svg t="1661566790366" class="icon" viewBox="0 0 1024 1024" version="1.1" xmlns="http://www.w3.org/2000/svg" p-id="25273" xmlns:xlink="http://www.w3.org/1999/xlink" width="200" height="200"><path d="M602.439111 301.596444c2.446222 13.297778 5.390222 26.481778 8.163556 39.708445 3.811556-13.496889 6.670222-26.88 9.301333-40.32 0.768-3.968 2.204444-6.4 6.684444-6.997333 6.698667-0.896 13.283556-2.474667 19.783112-4.209778 6.4-1.706667 13.326222-1.834667 20.423111-5.404445-13.923556-3.043556-26.567111-6.158222-39.352889-8.405333-5.105778-0.881778-6.840889-3.285333-7.68-7.964444-2.56-13.169778-5.418667-26.311111-8.120889-39.438223a381.184 381.184 0 0 0-9.059556 38.513778c-0.967111 5.290667-2.730667 8.007111-8.519111 9.002667-12.672 2.119111-25.159111 5.347556-37.745778 8.106666-0.042667 0.398222-0.071111 0.853333-0.170666 1.251556 12.856889 2.787556 25.642667 5.745778 38.542222 8.263111 4.721778 0.910222 6.883556 2.986667 7.751111 7.893333zM723.256889 428.060444c3.456 0.696889 5.361778 1.834667 5.973333 5.774223 1.109333 7.296 2.645333 14.535111 4.494222 21.660444 1.664 6.257778 1.592889 13.112889 5.262223 19.598222 2.944-14.023111 5.944889-27.136 8.348444-40.334222 0.824889-4.408889 2.744889-6.030222 6.968889-6.840889 12.942222-2.517333 25.784889-5.532444 38.684444-8.362666a345.315556 345.315556 0 0 0-39.239111-9.912889c-3.939556-0.768-5.603556-2.360889-6.357333-6.4-2.488889-13.425778-5.504-26.808889-8.263111-40.248889-1.863111 1.152-2.076444 3.015111-2.432 4.821333-2.161778 10.538667-4.864 21.048889-6.286222 31.744-0.995556 7.281778-4.394667 9.955556-11.136 11.079111-11.932444 2.033778-23.736889 4.992-35.541334 7.523556l0.014223 1.436444c13.184 2.830222 26.325333 5.802667 39.509333 8.462222z" p-id="25274"></path><path d="M151.594667 643.185778H447.288889l48.782222 173.724444H103.310222l48.284445-173.724444z m732.757333-148.366222l-2.005333 51.271111 45.326222 29.354666-51.256889-1.991111-29.397333 45.312 2.005333-51.256889-45.283556-29.368889 51.256889 1.991112 29.354667-45.312z m-717.824 36.849777l-29.368889 45.297778-51.271111-1.991111 45.312 29.368889-2.005333 51.271111 28.885333-45.312 51.271111 2.005333-45.312-29.368889 2.488889-51.271111z m233.472-324.579555l-4.465778 103.054222 91.093334 58.737778-103.054223-4.48-58.737777 91.107555 4.48-103.068444-91.107556-58.737778 103.054222 4.465778 58.737778-91.079111z m193.649778 436.096h295.68l48.782222 173.724444h-393.244444l48.782222-173.724444zM364.16 420.650667l-48.796444 173.738666h393.287111l-48.810667-173.738666h-295.68z" p-id="25275"></path></svg>