<?xml version="1.0" standalone="no"?><!DOCTYPE svg PUBLIC "-//W3C//DTD SVG 1.1//EN" "http://www.w3.org/Graphics/SVG/1.1/DTD/svg11.dtd"><svg t="1661566907546" class="icon" viewBox="0 0 1024 1024" version="1.1" xmlns="http://www.w3.org/2000/svg" p-id="33350" xmlns:xlink="http://www.w3.org/1999/xlink" width="200" height="200"><path d="M534.499556 183.964444l1.521777 29.994667h-25.059555l1.024-29.994667h-52.48l-277.418667 656.071112h307.413333l5.034667-146.218667h66.190222l7.495111 146.218667h284.956445l-262.456889-656.071112h-56.220444z m7.907555 153.713778h-35.683555l1.806222-52.494222h31.175111l2.702222 52.494222z m4.024889 78.72h-42.410667l2.062223-59.989333h37.262222l3.086222 59.989333z m5.603556 108.714667h-51.740445l3.086222-89.969778h44.003556l4.650667 89.969778z m-15.047112-292.423111l1.763556 33.735111h-29.582222l1.166222-33.735111h26.652444z m-41.813333 442.396444l4.48-131.228444h53.333333l6.784 131.228444h-64.597333zM425.784889 183.964444L84.608 840.035556h56.234667l299.932444-656.071112zM613.233778 183.964444h-7.480889l288.668444 656.071112h44.970667z" p-id="33351"></path></svg>