<?xml version="1.0" standalone="no"?><!DOCTYPE svg PUBLIC "-//W3C//DTD SVG 1.1//EN" "http://www.w3.org/Graphics/SVG/1.1/DTD/svg11.dtd"><svg t="1661566680242" class="icon" viewBox="0 0 1024 1024" version="1.1" xmlns="http://www.w3.org/2000/svg" p-id="23194" xmlns:xlink="http://www.w3.org/1999/xlink" width="200" height="200"><path d="M512 964.608c-61.090816 0-120.367104-11.969536-176.183296-35.57888-53.899264-22.797312-102.300672-55.428096-143.858688-96.987136-41.558016-41.558016-74.189824-89.959424-96.987136-143.858688C71.36256 632.367104 59.392 573.089792 59.392 512s11.97056-120.367104 35.57888-176.183296c22.797312-53.900288 55.428096-102.300672 96.987136-143.858688 41.558016-41.55904 89.959424-74.189824 143.858688-96.987136C391.632896 71.361536 450.909184 59.392 512 59.392s120.367104 11.969536 176.183296 35.57888c53.899264 22.797312 102.300672 55.428096 143.858688 96.987136 41.558016 41.558016 74.189824 89.959424 96.987136 143.858688C952.63744 391.632896 964.608 450.910208 964.608 512c0 88.036352-25.302016 173.3888-73.170944 246.832128-7.719936 11.846656-23.580672 15.187968-35.42528 7.469056-11.844608-7.719936-15.187968-23.580672-7.468032-35.426304C890.978304 665.769984 913.408 590.084096 913.408 512c0-54.201344-10.609664-106.76736-31.53408-156.237824-20.215808-47.797248-49.16224-90.727424-86.035456-127.599616-36.873216-36.873216-79.803392-65.819648-127.599616-86.03648C618.76736 121.201664 566.201344 110.592 512 110.592s-106.76736 10.609664-156.237824 31.53408c-47.796224 20.215808-90.727424 49.163264-127.599616 86.03648-36.873216 36.873216-65.819648 79.803392-86.035456 127.599616C121.201664 405.23264 110.592 457.798656 110.592 512s10.609664 106.76736 31.53408 156.237824c20.215808 47.797248 49.16224 90.727424 86.035456 127.599616 36.873216 36.873216 79.803392 65.819648 127.599616 86.03648C405.23264 902.798336 457.798656 913.408 512 913.408c80.4864 0 158.121984-23.724032 224.513024-68.605952 11.712512-7.919616 27.62752-4.84352 35.546112 6.87104 7.918592 11.712512 4.842496 27.626496-6.87104 35.545088C690.296832 937.846784 602.745856 964.608 512 964.608z" p-id="23195"></path><path d="M683.558912 241.9712 340.441088 241.9712c-12.70272 0-23.001088 10.208256-23.001088 22.802432 0 0.234496 0.011264 0.466944 0.018432 0.699392l0 438.071296c0 10.0352 6.618112 18.890752 16.30208 21.813248l261.174272 78.825472c2.197504 0.662528 4.453376 0.98816 6.69696 0.98816 4.873216 0 9.684992-1.536 13.693952-4.48 5.855232-4.3008 9.30816-11.097088 9.30816-18.321408l0-56.402944 58.925056 0c12.703744 0 23.001088-10.208256 23.001088-22.802432L706.56 264.773632C706.56 252.18048 696.262656 241.9712 683.558912 241.9712zM578.632704 751.591424l-215.17312-64.941056L363.459584 295.93088l215.17312 64.941056L578.632704 751.591424zM660.557824 680.361984l-35.923968 0L624.633856 343.979008c0-10.0352-6.618112-18.890752-16.30208-21.813248l-114.607104-34.589696 166.833152 0L660.557824 680.361984z" p-id="23196"></path><path d="M505.721856 590.516224c12.70272 0 23.001088-10.208256 23.001088-22.802432l0-62.18752c0-12.593152-10.297344-22.802432-23.001088-22.802432-12.70272 0-23.001088 10.208256-23.001088 22.802432l0 62.18752C482.720768 580.306944 493.019136 590.516224 505.721856 590.516224z" p-id="23197"></path></svg>