<?xml version="1.0" standalone="no"?><!DOCTYPE svg PUBLIC "-//W3C//DTD SVG 1.1//EN" "http://www.w3.org/Graphics/SVG/1.1/DTD/svg11.dtd"><svg t="1661566089020" class="icon" viewBox="0 0 1024 1024" version="1.1" xmlns="http://www.w3.org/2000/svg" p-id="9704" xmlns:xlink="http://www.w3.org/1999/xlink" width="200" height="200"><path d="M320.87552 9.09824c-32.69632-7.14752-66.432-6.37952-99.73248-5.82656C117.3504 5.00224 27.2128 80.62464 11.61216 184.13568c-5.4784 36.36736-2.4832 74.9568-2.4832 111.56992 0 66.85184 0 133.7088 0 200.55552l45.8496 0c-0.4096-95.48288-4.58752-192.04608 0.18432-287.31904 2.49856-49.86368 27.12576-99.77344 69.00736-128.36864 37.37088-25.51296 75.88864-31.37536 119.9616-31.37536 42.7008 0 82.88256 3.02592 119.49568 28.02176 41.07264 28.03712 71.08096 74.97728 73.60512 125.42976 4.87936 97.41312 1.01888 195.97824 0.51712 293.61152l45.824 0c0-23.86432 0-47.7184 0-71.58272 0-58.71104 0-117.41696 0-176.12288 0-56.92416-6.15424-110.2592-41.14944-158.23872C413.4912 50.66752 369.16224 19.67616 320.87552 9.09824L320.87552 9.09824z" p-id="9705"></path><path d="M9.12896 810.15808c1.49504 89.66656 58.64448 173.10208 145.17248 201.12896 37.11488 12.02688 74.6752 10.89024 113.10592 10.89024 46.65344 0 91.3152-13.58336 129.12128-41.15456 59.8528-43.66848 87.04512-111.26272 87.04512-183.64416 0-90.6752 0-181.36064 0-272.04096L9.12896 525.3376C9.12896 620.27264 9.12896 715.21792 9.12896 810.15808L9.12896 810.15808z" p-id="9706"></path><path d="M314.0864 910.58176c14.848 23.15776 34.90304 42.32192 54.5792 61.35296 61.33248 59.32032 157.67552 67.75296 226.90816 16.66048 24.32-17.95584 45.00992-42.12224 66.29376-63.40608 38.85568-38.85568 77.71648-77.71648 116.56704-116.56704l-26.6496-26.6496c-55.26016 55.73632-108.95872 114.28864-167.10144 166.89152-30.43328 27.53024-73.7536 42.22464-114.71872 34.50368-36.54656-6.89152-62.34624-25.87136-87.9616-51.48672-24.82176-24.82176-46.4128-49.93536-53.16608-85.73952-7.5776-40.1664 2.26304-84.89472 30.12608-115.68128 53.7856-59.45344 113.31584-114.49856 170.35264-170.9568l-26.63424-26.63424c-13.87008 13.87008-27.73504 27.73504-41.60512 41.60512-34.1248 34.1248-68.24448 68.24448-102.36928 102.36928-33.08544 33.08544-60.50816 67.66592-68.05504 115.8912C284.416 832.59392 292.1728 876.3648 314.0864 910.58176L314.0864 910.58176z" p-id="9707"></path><path d="M960.88064 626.18112c51.24608-52.98688 66.52416-134.69696 32.52736-201.27744-14.58176-28.56448-37.07392-49.73056-59.41248-72.06912-27.11552-27.11552-60.96896-45.184-98.96448-51.12832-60.17024-9.40544-115.26144 14.07488-157.33248 56.14592-52.70528 52.70528-105.41056 105.41056-158.11584 158.11584l275.75808 275.75808C850.51392 736.54784 905.69728 681.36448 960.88064 626.18112L960.88064 626.18112z" p-id="9708"></path></svg>