<?xml version="1.0" standalone="no"?><!DOCTYPE svg PUBLIC "-//W3C//DTD SVG 1.1//EN" "http://www.w3.org/Graphics/SVG/1.1/DTD/svg11.dtd"><svg t="1661566230555" class="icon" viewBox="0 0 1024 1024" version="1.1" xmlns="http://www.w3.org/2000/svg" p-id="20058" xmlns:xlink="http://www.w3.org/1999/xlink" width="200" height="200"><path d="M336.5 490.2l41.3 338.5c1.5 12.5 12.2 22 24.8 22h218.8c12.6 0 23.3-9.4 24.8-22l41.3-338.5" fill="#FFC999" p-id="20059"></path><path d="M730.1 418.9h-21.6c-1.1-28.2-8-55.3-20.6-80.5-11.1-22.2-26.6-42.3-45.2-58.9l49.5-49.5 37.9 32.5c5 4.3 12.6 3.7 16.9-1.3 4.3-5 3.7-12.6-1.3-16.9l-46.4-39.8c-4.8-4.1-11.9-3.8-16.3 0.6l-59.4 59.4c-32.9-22.7-71.2-34.7-111.6-34.7-105.9 0-192.5 84.1-196.5 189h-21.6c-21.5 0-39 17.5-39 39v5.3c0 21.5 17.5 39 39 39h32l40 328c2.3 18.5 18 32.5 36.7 32.5h218.8c18.7 0 34.5-14 36.7-32.5l40-328h32c21.5 0 39-17.5 39-39v-5.3c0-21.4-17.5-38.9-39-38.9zM512 253.8c38.5 0 74.8 12.4 105.2 35.7 0.1 0.1 0.2 0.2 0.3 0.2 40.7 31.4 64.8 78.1 67 129.1h-345c4-91.6 79.9-165 172.5-165z m122.3 573.5c-0.8 6.5-6.3 11.4-12.9 11.4H402.6c-6.6 0-12.1-4.9-12.9-11.4l-39.6-325.1h323.8l-39.6 325.1z m110.8-364.1c0 8.3-6.7 15-15 15H293.9c-8.3 0-15-6.7-15-15v-5.3c0-8.3 6.7-15 15-15h436.2c8.3 0 15 6.7 15 15v5.3z" fill="#FF8200" p-id="20060"></path><path d="M439.5 797.4m-18 0a18 18 0 1 0 36 0 18 18 0 1 0-36 0Z" fill="#FF8200" p-id="20061"></path><path d="M582.3 797.4m-18 0a18 18 0 1 0 36 0 18 18 0 1 0-36 0Z" fill="#FF8200" p-id="20062"></path><path d="M512 797.4m-18 0a18 18 0 1 0 36 0 18 18 0 1 0-36 0Z" fill="#FF8200" p-id="20063"></path><path d="M549.4 742.4m-18 0a18 18 0 1 0 36 0 18 18 0 1 0-36 0Z" fill="#FF8200" p-id="20064"></path><path d="M479 742.4m-18 0a18 18 0 1 0 36 0 18 18 0 1 0-36 0Z" fill="#FF8200" p-id="20065"></path></svg>