<?xml version="1.0" standalone="no"?><!DOCTYPE svg PUBLIC "-//W3C//DTD SVG 1.1//EN" "http://www.w3.org/Graphics/SVG/1.1/DTD/svg11.dtd"><svg t="1661566136521" class="icon" viewBox="0 0 1025 1024" version="1.1" xmlns="http://www.w3.org/2000/svg" p-id="12711" xmlns:xlink="http://www.w3.org/1999/xlink" width="200.1953125" height="200"><path d="M1020.428836 859.375599C1015.576958 880.511643 1010.474072 897.140947 1005.120178 909.257948 979.715565 950.94088 965.25834 959.269651 916.161961 986.466835 870.451343 1011.241231 825.242741 1023.626184 780.52332 1023.626184 767.39815 1023.626184 569.09727 1045.413865 268.985404 755.915944-31.124751 466.422017 1.019499 258.049426 0.985516 244.929961c0-44.663799 12.402229-89.828189 37.197704-135.487465 27.225707-49.047889 36.151051-61.632535 77.293602-88.864089 23.608905-9.971877 28.81305-10.439666 49.937685-15.291543 21.131766-4.847599 32.552646-3.877794 32.552646-3.877794 18.885526-0.663175 42.195075 11.877259 52.059989 28.005972l101.343198 165.654106c9.872045 16.132992 15.06478 44.27873 10.980189 62.72927 0 0-1.503198 16.652123-8.790997 23.637571-7.292078 6.986875-28.924435 27.89473-45.231421 40.050095-16.299855 12.151086-31.376045 25.019543-45.225716 38.602518-13.843967 13.581549-20.768089 24.757125-20.768089 33.521025 0 4.384089 1.215109 9.85493 3.6439 16.412524 2.423086 6.556167 4.495331 11.532123 6.205326 14.919309 1.709994 3.387187 5.12 9.213148 10.222886 17.48644 5.102886 8.267588 7.899632 12.881292 8.401649 13.843967 36.963833 66.545738 79.264446 123.615911 126.901838 171.197682 47.638819 47.588903 104.768891 89.843877 171.387365 126.769203 0.9641 0.496312 5.582084 3.298763 13.861081 8.395944 8.278997 5.097181 14.110663 8.495777 17.503554 10.205772 3.387187 1.709994 8.368847 3.776535 14.936423 6.201047 6.563298 2.428791 12.038418 3.636769 16.429638 3.636769 8.739655 0 19.926641-6.912713 33.553827-20.74527 13.631465-13.833983 26.512758-28.891632 38.64673-45.175799 12.132546-16.289872 25.497315-31.348947 40.094306-45.181504 14.589861-13.832557 6.138295-5.152802 6.138295-5.152802 16.741972-8.612724 43.577047-7.905337 59.93395 1.570228l185.838886 107.682585c16.355476 9.482696 29.252457 32.485616 28.31688 51.371142 0 0 0.929872 11.192691-3.922006 32.328735z" p-id="12712"></path></svg>