<?xml version="1.0" standalone="no"?><!DOCTYPE svg PUBLIC "-//W3C//DTD SVG 1.1//EN" "http://www.w3.org/Graphics/SVG/1.1/DTD/svg11.dtd"><svg t="1661566142328" class="icon" viewBox="0 0 1024 1024" version="1.1" xmlns="http://www.w3.org/2000/svg" p-id="12851" xmlns:xlink="http://www.w3.org/1999/xlink" width="200" height="200"><path d="M735.328391 486.072491c11.757788-14.329357 16.302291-33.470299 12.464893-52.735062l-26.313296-132.034129c-7.148817-35.899628-41.526789-64.184835-78.264505-64.184835L381.155976 237.118466c-36.736693 0-71.115688 28.244274-78.262458 64.135716l-26.316366 132.091434c-3.835352 19.257599 0.708128 38.438451 12.465916 52.767807 11.857049 14.452153 30.069853 22.577205 49.964972 22.577205l346.357426 0C705.261609 508.690628 723.471342 500.524644 735.328391 486.072491zM688.273702 447.549106c-0.349971 0.184195-1.290389 0.341784-2.90926 0.341784L339.008041 447.89089c-1.61887 0-2.559289-0.157589-2.910283-0.341784-0.064468-0.286526-0.164752-1.040702 0.106424-2.402723l26.316366-131.968637c1.517563-7.619538 10.747785-15.260565 18.635429-15.260565l262.060531 0c7.886621 0 17.117866 7.599072 18.637476 15.226796l26.313296 132.075061C688.438455 446.588221 688.339194 447.26258 688.273702 447.549106zM289.027719 636.775818m-57.371662 0a56.065 56.065 0 1 0 114.743324 0 56.065 56.065 0 1 0-114.743324 0ZM742.880391 636.775818m-57.371662 0a56.065 56.065 0 1 0 114.743324 0 56.065 56.065 0 1 0-114.743324 0ZM958.991404 694.650947l-16.247033-136.900973c-5.301749-44.586474-35.208896-84.771709-76.44302-104.646362l-49.603745-206.979028C801.64068 183.298699 739.257887 134.084834 674.677033 134.084834L349.694427 134.084834c-64.577784 0-126.9616 49.213865-142.020574 112.040772L158.071132 453.105658c-41.2331 19.872606-71.142294 60.057841-76.44302 104.650455L65.38108 694.64276c-3.900843 32.810267 5.54632 63.935148 26.603915 87.645153 18.594497 20.935822 43.999097 33.574676 72.443939 36.265972 12.43931 41.544185 51.018977 71.910796 96.556103 71.910796 45.340651 0 83.782172-30.101575 96.391351-71.368444l315.599911 0c12.609179 41.267892 51.052746 71.368444 96.393397 71.368444 45.811372 0 84.581374-30.731932 96.779184-72.662927 25.925463-3.837398 49.006134-16.114003 66.236564-35.513842C953.442014 758.578931 962.891224 727.453027 958.991404 694.650947zM886.927111 741.913367c-9.382695 10.564613-23.074531 16.383132-38.554084 16.383132l-39.59888 0 0.540306 30.9325 0.021489 0.722454c-0.1361 21.921265-18.012236 39.71349-39.965224 39.71349-21.931498 0-39.795355-17.757432-39.963177-39.649022 0.010233-0.316202 0.017396-0.635473 0.021489-0.953721l0.370437-30.765701L300.473399 758.296499l0.455371 30.849612 0.020466 0.787946c-0.125867 21.929452-18.004049 39.73191-39.963177 39.73191-21.933545 0-39.799448-17.764596-39.9642-39.660278 0.010233-0.290619 0.017396-0.582261 0.021489-0.874927l0.437975-30.833239L175.999456 758.297522c-15.47853 0-29.17139-5.818519-38.555108-16.383132-9.358135-10.536984-13.509688-24.775266-11.688203-40.098253l16.246009-136.888693c3.192715-26.855648 24.349571-51.804876 51.449789-60.672848l16.148795-5.284353 57.1977-238.672868c8.352225-34.844599 47.088458-65.411779 82.894965-65.411779L674.677033 194.885596c35.80753 0 74.54274 30.566156 82.894965 65.411779l57.199747 238.672868 16.147772 5.284353c27.100218 8.868995 48.25605 33.818223 51.448766 60.666708l16.247033 136.900973C900.4368 717.1381 896.28627 731.37536 886.927111 741.913367z" p-id="12852"></path></svg>