<?xml version="1.0" standalone="no"?><!DOCTYPE svg PUBLIC "-//W3C//DTD SVG 1.1//EN" "http://www.w3.org/Graphics/SVG/1.1/DTD/svg11.dtd"><svg t="1661566648511" class="icon" viewBox="0 0 1024 1024" version="1.1" xmlns="http://www.w3.org/2000/svg" p-id="22257" xmlns:xlink="http://www.w3.org/1999/xlink" width="200" height="200"><path d="M1023.095501 318.219689l0-315.428692-397.634612 67.398934 0 60.886941c-39.296962 0-166.809837 0-244.198762 0-85.920916 0-188.613816-127.076876-188.613816-127.076876l-63.537938 63.550938c0 0 45.463956 36.452964 101.475901 70.306931-33.435967 21.387979-76.047926 51.43295-101.404901 79.955922-66.445935 74.738927-65.025936 181.607823-64.491937 221.839783 0.039 2.928997 0.404 388.196621 0.408 391.309618l63.999938-0.068c-0.003-3.111997-0.37-388.83862-0.414-392.090617-0.486-36.590964-1.623998-122.278881 48.328953-178.466826 26.994974-30.36497 85.933916-68.110933 119.061884-87.611914 29.071972 13.022987 57.533944 21.870979 81.210921 21.870979 30.57197 0 69.725932 0 108.321894 0l0 27.162973-189.651815 104.518898c-23.315977 9.409991-39.774961 32.241969-39.774961 58.939942l0 571.755442c0 35.107966 28.436972 67.025935 63.525938 67.025935l387.659621 0c35.088966 0 63.537938-31.917969 63.537938-67.025935l0-571.755442c0-23.916977-13.214987-44.736956-32.731968-55.581946l0.318-0.577999-190.095814-105.444897 0-29.015972c33.539967 0 61.88494 0 77.065925 0l0 56.222945L1023.095501 318.219689zM707.365809 766.377252l-133.51887 0 0-190.595814 133.51887 0L707.365809 766.377252zM707.365809 512.2625 510.308002 512.2625l0 317.66569 197.057808 0 0 127.044876-387.659621 0 0-512.3975-0.11 0 0-59.172942 0.388 0.703999 195.341809-107.654895 191.868813 106.428896 0.171 0.336L707.365809 512.2625zM689.460827 124.254879l269.634737-45.701955 0 163.90484-269.634737-45.702955L689.460827 124.254879z" p-id="22258"></path></svg>