<?xml version="1.0" standalone="no"?><!DOCTYPE svg PUBLIC "-//W3C//DTD SVG 1.1//EN" "http://www.w3.org/Graphics/SVG/1.1/DTD/svg11.dtd"><svg t="1661566837848" class="icon" viewBox="0 0 1024 1024" version="1.1" xmlns="http://www.w3.org/2000/svg" p-id="29009" xmlns:xlink="http://www.w3.org/1999/xlink" width="200" height="200"><path d="M258.912329 939.845345c-7.957229 0-15.863293-2.476401-22.553669-7.326872-11.825326-8.650007-17.709337-23.127743-15.285125-37.548174l44.932352-261.889639L75.708797 447.569572c-10.43977-10.268878-14.18814-25.496697-9.689686-39.400359 4.498454-13.903661 16.556071-23.99653 30.976502-26.070772l263.037788-38.246069L477.596957 105.618503c6.458085-13.153578 19.783579-21.463848 34.380018-21.463848 14.647605 0 27.978215 8.309246 34.435277 21.463848l117.619838 238.234893 262.980483 38.246069c14.477736 2.073218 26.479071 12.167111 30.976502 26.070772 4.498454 13.903661 0.693802 29.131481-9.751085 39.400359L757.941923 633.079636l44.994774 261.889639c2.419096 14.364149-3.464915 28.898167-15.346523 37.548174-11.768021 8.54256-27.455305 9.695826-40.376593 2.8847L511.976976 811.784714 276.74037 935.403173C271.20326 938.345178 265.085936 939.845345 258.912329 939.845345L258.912329 939.845345z" p-id="29010"></path></svg>