<?xml version="1.0" standalone="no"?><!DOCTYPE svg PUBLIC "-//W3C//DTD SVG 1.1//EN" "http://www.w3.org/Graphics/SVG/1.1/DTD/svg11.dtd"><svg t="1661566767603" class="icon" viewBox="0 0 1024 1024" version="1.1" xmlns="http://www.w3.org/2000/svg" p-id="24377" xmlns:xlink="http://www.w3.org/1999/xlink" width="200" height="200"><path d="M528.471992 323.309988l125.28086 363.841715 67.957325 19.7634c29.455829 14.523953 62.259388 3.228811 71.065418-24.469809l26.877177-46.254839 132.265924-255.195178c14.273722-29.581344 2.885244-62.656519-24.677469-71.668609L505.770584 115.305615c-27.562313-9.007293-67.954127-19.7646-100.75249-8.471256l-120.269257 41.411923 156.335005 63.330862C470.537871 226.095899 505.693236 257.155241 528.471992 323.309988L528.471992 323.309988zM283.267441 917.312654l338.935002-116.704674c27.334667-9.412019 38.040808-31.596178 28.549044-59.161888l-149.95633-435.504928c-9.490166-27.561513-33.709945-62.386102-61.270858-71.393795l-185.795031-77.853415c-27.562113-9.007293-60.361475 2.28645-76.53431 26.352933l-103.940728 177.617375c-16.173834 24.066883-8.354336 64.538643 1.13583 92.099956l149.95633 435.504928C228.370661 917.71738 250.463881 928.607796 283.267441 917.312654L283.267441 917.312654zM260.56923 295.757269c23.134115-7.965799 43.913027 2.277456 51.94658 25.608437 6.693662 19.43982-2.03502 44.193237-25.169135 52.159036-19.280528 6.638899-43.913027-2.277456-51.945781-25.606239C227.367541 324.587522 237.435115 303.723068 260.56923 295.757269L260.56923 295.757269z" p-id="24378"></path></svg>