<?xml version="1.0" standalone="no"?><!DOCTYPE svg PUBLIC "-//W3C//DTD SVG 1.1//EN" "http://www.w3.org/Graphics/SVG/1.1/DTD/svg11.dtd"><svg t="1661566860522" class="icon" viewBox="0 0 1025 1024" version="1.1" xmlns="http://www.w3.org/2000/svg" p-id="30801" xmlns:xlink="http://www.w3.org/1999/xlink" width="200.1953125" height="200"><path d="M276.15104 115.26272c-152.04864 0-275.68896 123.65568-275.68896 275.67744 0 43.44448 10.31936 87.14624 30.27456 125.68704 6.27584 12.08448 20.8064 16.84864 32.8768 10.44608 12.35072-6.07872 17.07264-20.87552 10.7392-32.81792-16.5632-32.19584-24.9024-67.04896-24.9024-103.3152 0-124.85632 101.84832-226.54848 226.70208-226.54848 125.14048 0 226.84288 101.69088 226.84288 226.54848 0 124.86784-101.70368 226.54464-226.84288 226.54464-17.21344 0-34.45632-1.92256-51.07712-5.68192-13.14432-3.13728-26.00704 5.11744-29.28384 18.44352-2.71488 13.01632 5.17248 26.21824 18.48448 29.34144 20.04224 4.46592 41.12896 6.75584 61.87648 6.75584 152.16384 0 275.8592-123.65568 275.8592-275.4048C552.01152 238.9184 428.31488 115.26272 276.15104 115.26272zM228.01152 460.55936c14.89792 10.304 32.79232 16.42368 52.23808 16.42368 50.62912 0 91.1616-40.67712 91.1616-91.34336 0-50.3744-40.53248-91.05152-91.1616-91.05152-50.37056 0-91.35744 40.67712-91.35744 91.05152 0 13.05728 2.68672 25.3824 7.63264 36.52096-19.5904 20.6208-41.18656 46.58176-62.24512 78.03136C75.82208 586.8032 10.43968 748.01024 28.9856 955.12448 30.2016 967.90144 40.80128 992 53.29408 992l2.40256 0c13.45664 0 23.51872-27.77472 22.41536-41.17376-14.21824-153.68576 18.20416-298.0544 95.71456-413.99296C192.02944 509.42848 210.7136 479.04768 228.01152 460.55936zM787.98336 317.76896c-20.15232 0.84864-40.28032-3.52-58.85184-12.224-64.192-30.49984-91.52896-107.232-60.68736-171.15776 30.27456-64.30848 106.99136-91.44448 171.01568-60.94464 64.22144 30.14656 91.32928 107.104 60.82944 171.03104-4.0704 8.80512-9.24288 17.39904-15.20768 24.832-4.77568 6.02112-3.78624 14.84032 2.20544 19.56096 5.93664 4.77568 14.9248 3.66208 19.5328-2.31808 7.29472-9.24288 13.31456-19.4048 18.7136-30.13248 37.17248-77.664 3.90144-171.29984-73.94688-208.21632-77.9328-37.04192-171.46752-3.80032-208.38528 74.10304-37.088 77.9328-3.8144 171.3408 74.11456 208.36992 22.27712 10.59968 47.09504 15.74656 71.54432 15.17952 7.82976-0.37888 13.93792-6.75584 13.59616-14.49856C802.31808 323.60704 795.75808 317.64096 787.98336 317.76896zM1015.13984 423.64288c-82.0032-30.24512-144.30464-80.0512-184.72448-148.06272-9.69728-16.04224-16.736-31.10784-22.19008-44.704 8.87424-4.8768 16.47872-12.72192 21.19936-22.5024 12.04096-25.7792 1.216-56.60288-24.5632-68.94208-25.94944-12.36864-56.7616-1.35808-68.97408 24.4352-12.38016 25.92128-1.46816 56.60544 24.73344 69.07264 6.47552 2.8544 13.31456 4.77568 20.4928 4.90368 5.68192 14.93888 13.56928 32.43648 24.36608 50.92352 30.19008 50.96448 89.46816 120.23424 200.10368 161.07904 6.95552 2.46016 14.30528-0.66304 17.4976-7.0656 0-0.3968 0.31232-0.63616 0.45184-1.34272C1025.96608 434.24512 1022.43456 426.49984 1015.13984 423.64288z" p-id="30802"></path></svg>